<svg width="40" height="40" viewBox="0 0 40 40" fill="none" xmlns="http://www.w3.org/2000/svg">
<path fill-rule="evenodd" clip-rule="evenodd" d="M6.32919 0H33.6708C37.1677 0 40 2.8323 40 6.32919V33.6708C40 37.1677 37.1677 40 33.6708 40H6.32919C2.8323 40 0 37.1677 0 33.6708V6.32919C0 2.8323 2.8323 0 6.32919 0ZM32.3665 26.177C32.5217 25.5745 32.5745 24.9317 32.5807 24.3075L32.587 24.3043C32.6118 22.118 32.6087 19.9317 32.5839 17.7453C32.5807 17.4938 32.4068 17.2143 32.2453 17C32.0155 16.6988 31.6522 16.6273 31.2857 16.6149C31.1127 16.6087 30.9397 16.6035 30.7667 16.5983C30.3341 16.5853 29.9015 16.5723 29.4689 16.5435C28.7081 16.4938 28.3851 16.2267 28.177 15.4907C28.0776 15.1398 28.0093 14.7764 27.9534 14.413C27.9232 14.2147 27.8974 14.0156 27.8717 13.8165C27.7757 13.0741 27.6797 12.3328 27.354 11.6398C26.3354 9.47826 24.5714 8.15839 22.3913 7.36025C21.8385 7.15528 21.2143 7.08075 20.618 7.06522C18.8975 7.02484 17.1739 7.02174 15.4503 7.04969C14.7422 7.06211 14.0155 7.10559 13.3354 7.28571C9.80435 8.21739 7.40373 11.3913 7.40373 15.0404V19.6429C7.40373 20.0608 7.40322 20.4787 7.40271 20.8966C7.40145 21.9414 7.40018 22.9862 7.40683 24.0311C7.40994 24.4814 7.42547 24.9348 7.48137 25.382C7.79814 27.9658 9.15217 29.8789 11.3323 31.236C12.6677 32.0683 14.1553 32.3199 15.6988 32.3199C16.4654 32.3199 17.2321 32.3209 17.9988 32.322C20.145 32.325 22.2907 32.328 24.4348 32.3075C25.1894 32.3012 25.9689 32.2484 26.6894 32.0404C29.6863 31.1801 31.5807 29.1894 32.3665 26.177ZM15.6149 16.6025C16.0889 16.6129 16.5643 16.6094 17.0401 16.606C17.2782 16.6042 17.5164 16.6025 17.7547 16.6025V16.559C18.007 16.559 18.2596 16.5649 18.5121 16.5708H18.5122H18.5122C19.0803 16.584 19.648 16.5972 20.2112 16.5435C21.0901 16.4597 21.6522 15.4441 21.3696 14.6087C21.1646 14.0031 20.5901 13.5808 19.854 13.5715C18.441 13.5497 17.0248 13.5497 15.6118 13.5621C15.0031 13.5683 14.5031 13.8168 14.1956 14.3665C13.6304 15.3727 14.3944 16.5777 15.618 16.6025H15.6149ZM24.9534 22.8106C24.6832 22.736 24.3913 22.7081 24.1087 22.7081C21.3634 22.6988 18.618 22.6987 15.8727 22.7019C15.6708 22.7019 15.4689 22.7236 15.2702 22.7547C14.6584 22.8509 14.2578 23.2205 14.0714 23.7919C13.8851 24.3665 14.0652 24.8633 14.4845 25.2857C14.8603 25.6646 15.3323 25.7329 15.8292 25.7329H20.0373V25.6956C20.4873 25.6956 20.9377 25.6975 21.3881 25.6993C22.4824 25.7038 23.5774 25.7083 24.6708 25.6863C25.3447 25.6739 25.9627 24.9783 26.0217 24.2888C26.0714 23.6832 25.5807 22.9783 24.9534 22.8106Z" fill="white"/>
</svg>
