<svg width="63" height="66" viewBox="0 0 63 66" fill="none" xmlns="http://www.w3.org/2000/svg">
<path d="M25.397 41.6012H25.5264C26.657 41.6012 27.62 41.8478 28.4153 42.3456C29.2153 42.8435 29.8237 43.4809 30.2501 44.2626C30.6765 45.0443 30.8873 45.8725 30.8873 46.7472C30.8873 48.4036 30.4801 49.7995 29.6752 50.9301C28.8656 52.0608 27.7637 52.9076 26.3696 53.4752C24.9755 54.0429 23.3945 54.3221 21.6267 54.3221C20.7739 54.3221 20.0361 54.2895 19.4085 54.2197C18.781 54.1499 18.1725 54.0476 17.5881 53.9126C17.0036 53.7777 16.3137 53.5916 15.528 53.3589C15.5711 52.7541 15.6909 52.1492 15.8969 51.5443C16.0981 50.9394 16.3472 50.4044 16.649 49.9344C17.4587 50.1671 18.2204 50.3625 18.9343 50.5207C19.6481 50.6789 20.4721 50.7533 21.4111 50.7533C22.3501 50.7533 23.155 50.6231 23.9023 50.3578C24.6497 50.0926 25.2485 49.6878 25.7085 49.1434C26.1684 48.5991 26.3935 47.8872 26.3935 47.0078C26.3935 46.3471 26.1971 45.8027 25.8043 45.3839C25.4114 44.9652 24.894 44.6581 24.2568 44.4627C23.6197 44.2672 22.925 44.1695 22.1824 44.1695C21.8183 44.1695 21.4494 44.1788 21.0662 44.1975C20.6829 44.2161 20.3092 44.2766 19.9499 44.3743L19.6289 43.9369L23.9071 36.8599H16.879C16.7497 36.2736 16.6874 35.692 16.6874 35.1058C16.6874 34.4823 16.7497 33.8774 16.879 33.2912H30.231L30.5519 33.789L25.4114 41.6012H25.397Z" fill="white"/>
<path d="M46.1603 50.4369H50.726C50.7882 50.7672 50.8314 51.0743 50.8553 51.3581C50.8745 51.642 50.8889 51.9211 50.8889 52.191C50.8889 52.5027 50.8793 52.7959 50.8553 53.0704C50.8361 53.3449 50.793 53.6473 50.726 53.9777H36.9907C36.9285 53.6473 36.8853 53.3449 36.8614 53.0704C36.8422 52.7959 36.8279 52.5074 36.8279 52.191C36.8279 51.9165 36.8374 51.642 36.8614 51.3581C36.8806 51.0743 36.9237 50.7672 36.9907 50.4369H41.5899V38.5907L37.7573 39.9633C37.5465 39.712 37.3453 39.4561 37.168 39.2049C36.986 38.9536 36.8231 38.6884 36.6746 38.4139C36.3967 37.9067 36.1715 37.3624 36.0038 36.7761L45.2357 33.091H46.1603V50.4369Z" fill="white"/>
<path d="M53.4908 4.63159H9.50916C4.25598 4.63159 0 8.77735 0 13.8945V56.7371C0.563011 57.2855 4.03651 60.6691 4.59952 61.2175C5.23887 61.8403 8.86981 65.3772 9.50916 66H53.4908C58.744 66 63 61.8542 63 56.7371V13.8945C63 8.77735 58.744 4.63159 53.4908 4.63159ZM41.973 14.1594C44.3348 14.1594 46.248 16.0231 46.248 18.3238C46.248 20.6244 44.3348 22.4881 41.973 22.4881C39.6112 22.4881 37.6979 20.6244 37.6979 18.3238C37.6979 16.0231 39.6112 14.1594 41.973 14.1594ZM21.027 14.1594C23.3888 14.1594 25.3021 16.0231 25.3021 18.3238C25.3021 20.6244 23.3888 22.4881 21.027 22.4881C18.6653 22.4881 16.752 20.6244 16.752 18.3238C16.752 16.0231 18.6653 14.1594 21.027 14.1594ZM60.4187 54.3621C60.4187 59.4793 56.1628 63.625 50.9096 63.625H12.0952C11.3032 62.6444 10.2821 61.0688 9.97199 58.9773C9.72866 57.332 10.1056 56.5605 9.61415 55.7239C9.06068 54.7851 7.46228 53.8648 2.58603 54.3575V34.1213C2.58603 29.0042 6.84204 24.8584 12.0952 24.8584H50.9096C56.1628 24.8584 60.4187 29.0042 60.4187 34.1213V54.3575V54.3621Z" fill="white"/>
<path d="M42.0692 0.255859H41.7051C40.5647 0.255859 39.6403 1.1537 39.6403 2.26124V15.7545C39.6403 16.8621 40.5647 17.7599 41.7051 17.7599H42.0692C43.2096 17.7599 44.134 16.8621 44.134 15.7545V2.26124C44.134 1.1537 43.2096 0.255859 42.0692 0.255859Z" fill="white"/>
<path d="M21.1621 0H20.798C19.6576 0 18.7332 0.897839 18.7332 2.00538V15.4987C18.7332 16.6062 19.6576 17.504 20.798 17.504H21.1621C22.3025 17.504 23.2269 16.6062 23.2269 15.4987V2.00538C23.2269 0.897839 22.3025 0 21.1621 0Z" fill="white"/>
</svg>
