<svg width="19" height="15" viewBox="0 0 19 15" fill="none" xmlns="http://www.w3.org/2000/svg">
<path d="M6.83791 14.0512C6.67794 14.0507 6.51978 14.0172 6.37327 13.953C6.22676 13.8888 6.09502 13.7951 5.98624 13.6778L0.316239 7.64616C0.104287 7.42029 -0.00925484 7.11947 0.000590818 6.80988C0.0104365 6.50028 0.142863 6.20728 0.36874 5.99533C0.594616 5.78338 0.895438 5.66984 1.20503 5.67968C1.51462 5.68953 1.80762 5.82196 2.01957 6.04783L6.82624 11.1695L16.6379 0.436165C16.7375 0.312175 16.8613 0.209849 17.0019 0.135472C17.1425 0.0610959 17.2967 0.0162392 17.4553 0.00365742C17.6138 -0.00892432 17.7732 0.0110346 17.9237 0.0623081C18.0743 0.113582 18.2127 0.195087 18.3306 0.301818C18.4485 0.40855 18.5433 0.538254 18.6092 0.682965C18.6752 0.827675 18.7108 0.984337 18.714 1.14333C18.7172 1.30232 18.6878 1.46028 18.6277 1.60751C18.5676 1.75474 18.4781 1.88814 18.3646 1.9995L7.70124 13.6662C7.59349 13.7856 7.46221 13.8814 7.31565 13.9477C7.16908 14.0139 7.0104 14.0492 6.84957 14.0512H6.83791Z" fill="#002D72"/>
</svg>
