<svg width="40" height="40" viewBox="0 0 40 40" fill="none" xmlns="http://www.w3.org/2000/svg">
<path d="M19.9905 0.00138436C24.4519 0.00138436 28.9134 0.00138436 33.3779 0.00138436C37.2385 0.00449916 40 2.7611 40 6.60789C40 15.5162 40 24.4246 40 33.3298C40 37.2296 37.254 39.9986 33.3717 39.9986C24.4706 40.0017 15.5664 39.9986 6.66534 39.9986C2.77054 39.9986 0.0183342 37.2576 0.0121075 33.3547C-0.000345928 25.4182 0.00276742 17.4786 0.00276742 9.53892C0.00276742 8.54841 -0.00345928 7.5579 0.00276742 6.57051C0.043241 2.73618 2.78299 0.00761397 6.60307 0.00138436C11.0645 -0.00173045 15.5291 0.00138436 19.9905 0.00138436ZM21.7402 35.0897V22.5432C22.9669 22.5432 24.1063 22.5557 25.2458 22.5308C25.4326 22.5277 25.7564 22.3688 25.7782 22.238C26.0615 20.665 26.3013 19.0858 26.569 17.4007H21.7277C21.7277 16.1205 21.7277 14.9369 21.7277 13.7533C21.7246 12.7005 22.2383 11.9809 23.2004 11.6383C23.686 11.4639 24.2278 11.4203 24.7477 11.386C25.3953 11.3455 26.0491 11.3767 26.6904 11.3767V7.12183C25.7128 7.07511 24.7913 7.02839 23.8697 6.99101C23.1879 6.96298 22.5061 6.89134 21.8274 6.93183C18.9631 7.10626 16.9363 8.86301 16.4537 11.8252C16.1984 13.3951 16.3043 15.021 16.2451 16.6251C16.2358 16.8774 16.2202 17.1297 16.2078 17.435H11.6903V22.5526H16.2638V35.0928H21.7433L21.7402 35.0897Z" fill="white"/>
</svg>
