<svg width="40" height="40" viewBox="0 0 40 40" fill="none" xmlns="http://www.w3.org/2000/svg">
<g clip-path="url(#clip0_929_2351)">
<path d="M33.6708 0H6.32919C2.8323 0 0 2.8323 0 6.32919V33.6708C0 37.1677 2.8323 40 6.32919 40H33.6708C37.1677 40 40 37.1677 40 33.6708V6.32919C40 2.8323 37.1677 0 33.6708 0ZM12.9907 26.0311C9.5559 26.0528 6.75776 23.2671 6.85093 19.8944C6.95031 16.3354 9.82298 13.7174 13.3509 13.8634C16.5155 13.9938 19.2174 16.8944 19.087 20.0186C18.9379 23.6149 16.1087 26.1056 12.9938 26.0311H12.9907ZM28.0776 26.0373C24.7143 26.0745 21.7547 23.3199 21.913 19.8634C21.7609 16.7298 24.6925 13.7826 28.087 13.8509C31.3354 13.9161 34.0186 16.677 34.0497 19.8199C34.0839 23.2298 31.2857 26 28.0776 26.0373Z" fill="white"/>
</g>
<defs>
<clipPath id="clip0_929_2351">
<rect width="40" height="40" fill="white"/>
</clipPath>
</defs>
</svg>
