<svg width="60" height="60" viewBox="0 0 60 60" fill="none" xmlns="http://www.w3.org/2000/svg">
<path d="M50.9436 0H9.05635C4.05332 0 0 4.05332 0 9.05635V50.9437C0 55.9467 4.05332 60 9.05635 60H50.9436C55.9467 60 60 55.9467 60 50.9437V9.05635C60.0045 4.05332 55.9467 0 50.9436 0ZM47.5129 30.2999H45.2681V44.3138C45.2681 47.7673 42.4689 50.5665 39.0154 50.5665H20.98C17.5265 50.5665 14.7274 47.7673 14.7274 44.3138V30.2999H12.4826C9.09724 30.2999 7.62042 26.0239 10.2832 23.9337L27.7961 10.2015C29.0866 9.18813 30.9043 9.18813 32.1948 10.2015L49.7077 23.9337C52.3705 26.0239 50.8937 30.2999 47.5083 30.2999H47.5129Z" fill="white"/>
</svg>
