<svg width="40" height="40" viewBox="0 0 40 40" fill="none" xmlns="http://www.w3.org/2000/svg">
<path fill-rule="evenodd" clip-rule="evenodd" d="M40 20V33.3925C40 37.2109 37.2497 39.9922 33.4467 39.9953C24.4733 40.0016 15.503 40.0016 6.52958 39.9953C2.80753 39.9953 0.013659 37.2141 0.0105443 33.4859C-0.00191443 24.4912 -0.00502912 15.4964 0.0105443 6.5016C0.0167737 2.76415 2.79507 0.00778634 6.5327 0.00467181C15.5279 -0.00155727 24.5231 -0.00155727 33.5152 0.00467181C37.2124 0.00778634 39.9907 2.78907 39.9938 6.47357C39.9979 9.4799 39.9965 12.4849 39.9952 15.4903V15.4906C39.9945 16.9936 39.9938 18.4966 39.9938 20H40ZM21.833 32.7788H21.8334H21.8335C23.1943 32.7855 24.5556 32.7922 25.9154 32.7665C29.7869 32.6949 32.7584 29.7423 32.802 25.8709C32.8487 21.9559 32.8456 18.0441 32.802 14.1291C32.7615 10.2484 29.6997 7.26154 25.8313 7.25531C21.9379 7.24909 18.0477 7.24597 14.1543 7.25531C10.3015 7.26466 7.24907 10.3262 7.24285 14.1758C7.23869 16.6965 7.24008 19.2186 7.24146 21.7403V21.7406C7.24215 23.0013 7.24285 24.2618 7.24285 25.5221C7.24285 29.817 10.1893 32.7603 14.5032 32.7696C15.7183 32.7717 16.9334 32.771 18.1486 32.7703H18.1536C18.762 32.77 19.3704 32.7696 19.9788 32.7696V32.7727C20.5966 32.7727 21.2148 32.7758 21.833 32.7788ZM30.5516 21.9377V21.938V21.9402C30.553 23.1863 30.5544 24.4329 30.5502 25.6781C30.5378 28.4781 28.5257 30.5056 25.7194 30.5181C21.935 30.5337 18.1538 30.5337 14.3694 30.5181C11.5195 30.5088 9.49806 28.503 9.48249 25.6594C9.46069 21.8971 9.4638 18.1378 9.48249 14.3754C9.49806 11.5256 11.5102 9.51054 14.3539 9.49808C18.1382 9.48251 21.9194 9.47939 25.7038 9.49808C28.5506 9.51365 30.5409 11.5443 30.5502 14.391C30.5544 15.6507 30.553 16.9118 30.5516 18.1725V18.1747V18.1751C30.5509 18.8055 30.5502 19.4358 30.5502 20.0657V20.0688C30.5502 20.6915 30.5509 21.3145 30.5516 21.9377ZM20.06 26.9738C23.8879 26.9613 27.0649 23.7876 27.04 19.9972C27.0151 16.2006 23.8319 13.0424 20.0226 13.0424C16.204 13.0424 13.0768 16.1912 13.0831 20.0346C13.0893 23.8872 16.204 26.9862 20.0631 26.9738H20.06ZM26.8562 14.6651C27.6816 14.6713 28.3824 13.9737 28.3668 13.167C28.3513 12.3821 27.6691 11.7125 26.8811 11.7094C26.037 11.7063 25.3705 12.3728 25.383 13.2075C25.3985 14.0204 26.0433 14.6589 26.8562 14.6651ZM20.0319 24.6093C22.5455 24.6 24.5887 22.535 24.5856 20.006C24.5825 17.53 22.5299 15.4806 20.0382 15.465C17.534 15.4495 15.4409 17.5331 15.4502 20.0341C15.4596 22.56 17.5184 24.6156 20.0319 24.6093Z" fill="white"/>
</svg>
