<svg width="60" height="60" viewBox="0 0 60 60" fill="none" xmlns="http://www.w3.org/2000/svg">
<g clip-path="url(#clip0_929_2357)">
<path d="M50.9398 0H9.05566C4.05301 0 0 4.05301 0 9.05566V50.9398C0 55.9424 4.05301 59.9954 9.05566 59.9954H50.9398C55.9424 59.9954 59.9954 55.9424 59.9954 50.9398V9.05566C59.9954 4.05301 55.9424 0 50.9398 0ZM33.1011 46.8868C32.8603 47.4502 32.5331 47.9409 32.1151 48.359C31.6971 48.777 31.2018 49.1087 30.6429 49.3449C30.0795 49.5812 29.4843 49.7039 28.8527 49.7039C28.2211 49.7039 27.6259 49.5858 27.0625 49.3449C26.4991 49.1041 26.0083 48.777 25.5903 48.359C25.1723 47.9409 24.8406 47.4457 24.6043 46.8868C24.3635 46.3234 24.2454 45.7281 24.2454 45.0965C24.2454 44.465 24.3635 43.8697 24.6043 43.3063C24.8406 42.7429 25.1723 42.2522 25.5903 41.8341C26.0083 41.4161 26.4991 41.0799 27.0625 40.8345C27.6259 40.5892 28.2211 40.4619 28.8527 40.4619C29.4843 40.4619 30.0795 40.5846 30.6429 40.8345C31.2064 41.0844 31.6971 41.4161 32.1151 41.8341C32.5331 42.2522 32.8648 42.7474 33.1011 43.3063C33.3374 43.8697 33.46 44.465 33.46 45.0965C33.46 45.7281 33.3419 46.3234 33.1011 46.8868ZM42.9019 23.5229C42.7474 24.2863 42.4884 25.0314 42.1159 25.7539C41.7433 26.4809 41.2571 27.2124 40.6573 27.9576C40.0576 28.7028 39.2987 29.4843 38.3809 30.3022C37.8266 30.7792 37.2313 31.2018 36.5907 31.5744C35.95 31.947 35.3321 32.3468 34.7323 32.7739C34.1325 33.2056 33.5918 33.7009 33.1147 34.2597C32.6376 34.8232 32.2923 35.532 32.0833 36.3908C31.9697 36.8315 31.788 37.2041 31.5381 37.5085C31.2881 37.8129 31.0246 38.0583 30.7384 38.2401C30.4521 38.4218 30.1613 38.549 29.866 38.6263C29.5706 38.7035 29.3071 38.7399 29.0799 38.7399C28.6619 38.7399 28.2166 38.6808 27.7486 38.5672C27.2806 38.4536 26.8535 38.2491 26.4627 37.9538C26.0719 37.6585 25.7493 37.2632 25.4903 36.7679C25.2313 36.2726 25.1041 35.641 25.1041 34.8777C25.1041 34.0371 25.1723 33.3147 25.304 32.7012C25.4358 32.0924 25.6675 31.5244 25.9902 30.9973C26.3128 30.4748 26.7535 29.9477 27.3078 29.4252C27.8622 28.9027 28.5665 28.3029 29.4252 27.635C29.8614 27.2897 30.3658 26.9307 30.9292 26.549C31.4926 26.1674 32.0197 25.7448 32.515 25.2768C33.0102 24.8088 33.4328 24.2908 33.7736 23.7183C34.1143 23.1458 34.287 22.5097 34.287 21.8008C34.287 21.092 34.1643 20.4922 33.9144 19.9424C33.6645 19.3927 33.3374 18.9156 32.9284 18.5248C32.5195 18.134 32.0469 17.8387 31.5108 17.6388C30.9746 17.4388 30.4248 17.3389 29.8523 17.3389C29.1844 17.3389 28.6073 17.4252 28.1212 17.5979C27.635 17.7705 27.2079 17.9977 26.8489 18.284C26.4854 18.5702 26.1719 18.8928 25.9038 19.2563C25.6357 19.6198 25.3995 20.0015 25.1905 20.4014C24.9814 20.8966 24.7043 21.3283 24.359 21.6872C24.0136 22.0507 23.6274 22.3461 23.2003 22.5733C22.7686 22.8005 22.3188 22.9549 21.8417 23.0322C21.3646 23.1094 20.8966 23.1094 20.4377 23.0322C19.8834 22.9368 19.3518 22.7323 18.8338 22.4188C18.3203 22.1053 17.8932 21.71 17.5615 21.2329C17.2298 20.7558 17.0072 20.1969 16.9027 19.5608C16.7982 18.9201 16.8891 18.2204 17.1753 17.457C17.5933 16.1984 18.2022 15.0307 18.9928 13.9493C19.7834 12.8724 20.7376 11.9409 21.8554 11.1594C22.9731 10.3779 24.2363 9.76903 25.6448 9.32828C27.0579 8.89209 28.6028 8.66944 30.2794 8.66944C31.9561 8.66944 33.6282 8.99659 35.173 9.65543C36.7179 10.3143 38.081 11.2048 39.2669 12.3317C40.4483 13.4585 41.3889 14.7671 42.0841 16.2666C42.7792 17.766 43.1291 19.3608 43.1291 21.0602C43.1291 21.9371 43.0519 22.7596 42.9019 23.5229Z" fill="white"/>
</g>
<defs>
<clipPath id="clip0_929_2357">
<rect width="60" height="60" fill="white"/>
</clipPath>
</defs>
</svg>
