<svg width="40" height="40" viewBox="0 0 40 40" fill="none" xmlns="http://www.w3.org/2000/svg">
<g clip-path="url(#clip0_929_2358)">
<path d="M14.3588 10.517H11.5151C13.8303 13.6257 16.1454 16.7369 18.463 19.8456C18.9624 19.2983 19.4642 18.7509 19.9636 18.2012C18.097 15.6398 16.2279 13.0784 14.3612 10.517H14.3588Z" fill="white"/>
<path d="M19.4497 21.1719L25.6146 29.4503H28.1624C25.7527 26.1427 23.3406 22.8374 20.9309 19.5298C20.4364 20.0772 19.9443 20.6246 19.4497 21.1719Z" fill="white"/>
<path d="M33.2703 0H6.7297C3.01333 0 0 2.9076 0 6.49357V33.5064C0 37.0924 3.01333 40 6.7297 40H33.2703C36.9867 40 40 37.0924 40 33.5064V6.49357C40 2.9076 36.9867 0 33.2703 0ZM30.3273 31.0012H24.4752C22.3976 28.1731 20.32 25.3427 18.2424 22.5146C15.6921 25.3427 13.1418 28.1731 10.5891 31.0012L8.17939 31.1111C11.2048 27.7965 14.2279 24.4819 17.2533 21.1673C14.2667 17.0994 11.28 13.0339 8.29333 8.96608H15.2921C17.2388 11.6164 19.1855 14.2667 21.1297 16.917C23.583 14.2292 26.0339 11.5415 28.4873 8.85614H30.5527C27.7333 11.9813 24.9164 15.1088 22.097 18.2339C25.2218 22.4889 28.3467 26.7439 31.4715 30.9988H30.3248L30.3273 31.0012Z" fill="white"/>
</g>
<defs>
<clipPath id="clip0_929_2358">
<rect width="40" height="40" fill="white"/>
</clipPath>
</defs>
</svg>
