<svg width="40" height="40" viewBox="0 0 40 40" fill="none" xmlns="http://www.w3.org/2000/svg">
<path d="M20.0345 40C15.5731 40 11.1086 40 6.6473 40C2.77747 40 0.0190953 37.281 0.0128688 33.4128C-0.00269771 24.4618 -0.005811 15.5107 0.0128688 6.55962C0.0190953 2.73813 2.79927 0.00671081 6.61928 0.00359631C15.5451 0.000481815 24.4678 -0.00263268 33.3936 0.00359631C37.2385 0.00359631 40 2.77862 40 6.62814C40 15.5574 40 24.4867 40 33.4159C40 37.2219 37.2292 39.9938 33.4216 39.9969C28.9603 40.0031 24.4958 39.9969 20.0345 39.9969V40ZM19.7294 11.3871C17.6217 11.3871 15.6447 11.4681 11.6939 11.6269C11.2114 11.6456 10.0439 11.7266 9.10057 12.5239C9.05698 12.5613 9.02274 12.5924 8.99161 12.6235C8.3814 13.2246 8.06384 14.1154 7.93931 15.3799C7.63732 18.4508 7.64044 21.5248 7.94243 24.5957C8.17904 26.9907 9.09435 27.9656 11.4698 28.2739C15.2524 28.7629 19.0538 28.766 22.8551 28.6476C24.9815 28.5822 27.1079 28.3954 29.2218 28.1556C30.8407 27.9718 31.7903 26.9347 31.9926 25.3338C32.1856 23.8108 32.3662 22.2723 32.3506 20.7399C32.3289 18.6594 32.1919 16.5696 31.9646 14.4985C31.7965 12.9506 30.7784 12.0505 29.2498 11.7546C28.7641 11.6612 28.3968 11.6082 28.2753 11.5989C24.5674 11.3777 19.7294 11.384 19.7294 11.384V11.3871Z" fill="white"/>
<path d="M17.6343 16.3172C19.7451 17.5287 21.7936 18.706 23.9698 19.958C21.8248 21.2069 19.7762 22.4029 17.6343 23.6518V16.3172Z" fill="white"/>
</svg>
