<svg width="60" height="60" viewBox="0 0 60 60" fill="none" xmlns="http://www.w3.org/2000/svg">
<path d="M50.9437 0H9.05634C4.05331 0 0 4.05332 0 9.05635V50.9437C0 55.9467 4.05331 60 9.05634 60H50.9437C55.9467 60 60 55.9467 60 50.9437V9.05635C60 4.05332 55.9467 0 50.9437 0ZM13.7549 12.9552C14.8001 12.6553 15.7225 12.5916 16.3496 12.5916H30C36.7979 12.5235 41.8328 12.5598 43.6504 12.5916C44.173 12.6007 45.2227 12.628 46.4677 13.0188C47.3629 13.3005 48.0264 13.664 48.4262 13.9094L30.0045 23.9427L11.5828 13.9094C12.0736 13.605 12.8052 13.2278 13.7595 12.9552H13.7549ZM51.9752 40.1651C51.9752 44.1866 48.249 47.4493 43.6504 47.4493H16.3541C11.7555 47.4493 8.02938 44.1866 8.02938 40.1651V19.8758C8.02938 17.8628 8.96546 16.0361 10.4741 14.7183L30 25.4014L49.5259 14.7183C51.0391 16.0361 51.9706 17.8628 51.9706 19.8758V40.1651H51.9752Z" fill="white"/>
</svg>
