<svg width="60" height="60" viewBox="0 0 60 60" fill="none" xmlns="http://www.w3.org/2000/svg">
<path d="M50.9437 0H9.05634C4.05331 0 0 4.05332 0 9.05635V50.9437C0 55.9467 4.05331 60 9.05634 60H50.9437C55.9467 60 60 55.9467 60 50.9437V9.05635C60 4.05332 55.9467 0 50.9437 0ZM47.1812 41.0194C46.4314 41.8737 46.0542 42.7325 45.9724 43.8367C45.8497 45.468 45.6089 47.0857 45.3954 48.9125C43.405 48.0309 41.6374 47.2084 39.8334 46.4677C39.3654 46.2723 38.7701 46.1951 38.2702 46.286C35.3075 46.8404 32.4129 46.6677 29.5456 45.7134C28.2824 45.2908 27.1054 44.7183 26.0194 44.023C24.2427 44.123 22.4659 43.9458 20.6801 43.4914C20.1893 43.3687 19.5941 43.4096 19.1124 43.5686C17.2675 44.1912 15.4453 44.9 13.405 45.6498C13.3096 43.814 13.1733 42.1827 13.1597 40.5468C13.1506 39.438 12.8279 38.5565 12.1327 37.6568C5.28477 28.7549 8.93366 16.0633 19.4396 12.11C24.4017 10.2424 29.7001 11.0012 33.8852 13.6595C36.4344 13.4959 39.0518 13.9276 41.5329 15.05C51.7616 19.6713 54.588 32.5719 47.1812 41.0148V41.0194Z" fill="white"/>
<path d="M40.8966 23.0746C38.052 13.9637 28.2186 9.05159 19.4395 12.3551C8.93355 16.3085 5.28466 29.0001 12.1326 37.9019C12.8278 38.8017 13.1459 39.6832 13.1596 40.792C13.1777 42.4278 13.3095 44.0592 13.4049 45.895C15.4452 45.1407 17.2674 44.4363 19.1123 43.8138C19.594 43.6502 20.1938 43.6093 20.68 43.7365C23.6018 44.4818 26.501 44.4954 29.4228 43.7274C38.2838 41.3963 43.6185 31.8083 40.8921 23.0746H40.8966Z" stroke="white" stroke-width="3" stroke-miterlimit="10"/>
</svg>
